<svg xmlns="http://www.w3.org/2000/svg" width="80" height="80" viewBox="0 0 80 80">
  <g id="defesa" transform="translate(-23.708 1.037)">
    <g id="Group_82" data-name="Group 82">
      <path id="Path_42" data-name="Path 42" d="M121.472,109.023a68.781,68.781,0,0,0,2.6,13.942c3.377,11.183,9.344,19.134,17.742,23.653,8.4-4.519,14.365-12.47,17.742-23.653a68.8,68.8,0,0,0,2.6-13.942L141.813,98.852Z" transform="translate(-77.729 -83.905)" fill="#49b7a6"/>
      <path id="Path_43" data-name="Path 43" d="M98.235,18.093a2.268,2.268,0,0,0-1.251-1.911L65.1.239a2.268,2.268,0,0,0-2.029,0L31.184,16.182a2.268,2.268,0,0,0-1.251,1.911A80.359,80.359,0,0,0,33.15,42.442a59.408,59.408,0,0,0,9.74,19.71A46.1,46.1,0,0,0,63.278,77.269a2.27,2.27,0,0,0,1.613,0A46.1,46.1,0,0,0,85.278,62.152a59.409,59.409,0,0,0,9.74-19.71,80.359,80.359,0,0,0,3.217-24.349ZM65.089,67.3a2.268,2.268,0,0,1-2.01,0C52.98,62.3,45.888,53.244,42,40.371a74.046,74.046,0,0,1-2.893-16.462,2.268,2.268,0,0,1,1.249-2.17L63.07,10.382a2.269,2.269,0,0,1,2.029,0L87.813,21.739a2.268,2.268,0,0,1,1.249,2.17,74.046,74.046,0,0,1-2.893,16.462C82.281,53.244,75.189,62.3,65.089,67.3Z" fill="#49b7a6"/>
    </g>
    <rect id="Rectangle_122" data-name="Rectangle 122" width="80" height="80" transform="translate(23.708 -1.037)" fill="none"/>
  </g>
</svg>
