<svg xmlns="http://www.w3.org/2000/svg" width="90" height="90" viewBox="0 0 90 90">
  <g id="dst" transform="translate(-847 -8214)">
    <path id="virus" d="M64.713,30.2a4.315,4.315,0,0,0-3.734,2.157H57.061A22.538,22.538,0,0,0,51.974,20.1l2.779-2.779A4.315,4.315,0,1,0,51.7,14.274l-2.779,2.779a22.538,22.538,0,0,0-12.253-5.086V8.049a4.314,4.314,0,1,0-4.314,0v3.918A22.538,22.538,0,0,0,20.1,17.053l-2.779-2.779a4.315,4.315,0,1,0-3.051,3.051L17.053,20.1a22.538,22.538,0,0,0-5.086,12.253H8.049a4.314,4.314,0,1,0,0,4.314h3.918a22.538,22.538,0,0,0,5.086,12.253L14.274,51.7a4.315,4.315,0,1,0,3.051,3.051L20.1,51.974a22.538,22.538,0,0,0,12.253,5.086v3.918a4.314,4.314,0,1,0,4.314,0V57.061a22.538,22.538,0,0,0,12.253-5.086L51.7,54.753A4.315,4.315,0,1,0,54.753,51.7l-2.779-2.779a22.538,22.538,0,0,0,5.086-12.253h3.918A4.314,4.314,0,1,0,64.713,30.2ZM27.368,33.435a3.775,3.775,0,1,1,3.775-3.775A3.779,3.779,0,0,1,27.368,33.435Zm9.3,12.943a4.314,4.314,0,1,1,4.314-4.314A4.318,4.318,0,0,1,36.671,46.378Zm7.55-15.1a3.236,3.236,0,1,1,3.236-3.236A3.24,3.24,0,0,1,44.221,31.278Z" transform="translate(857 8224)" fill="#49b7a6"/>
    <rect id="Rectangle_126" data-name="Rectangle 126" width="90" height="90" transform="translate(847 8214)" fill="none"/>
  </g>
</svg>
