<svg xmlns="http://www.w3.org/2000/svg" xmlns:xlink="http://www.w3.org/1999/xlink" width="115" height="80" viewBox="0 0 115 80">
  <defs>
    <clipPath id="clip-path">
      <rect id="Rectangle_106" data-name="Rectangle 106" width="115" height="80" transform="translate(-8 -2)" fill="#49b7a6"/>
    </clipPath>
  </defs>
  <g id="em-grupo" transform="translate(8 2)" clip-path="url(#clip-path)">
    <g id="_1356322" data-name="1356322" transform="translate(-15.638 1.561)">
      <path id="Path_1" data-name="Path 1" d="M243.425,121.942H229.711V108.522a4.338,4.338,0,0,0-.986-2.868,3.127,3.127,0,0,0-2.443-1.157h-1.143a3.127,3.127,0,0,0-2.443,1.157,4.338,4.338,0,0,0-.986,2.868v17.445h-2.286a3.127,3.127,0,0,0-2.443,1.157,4.338,4.338,0,0,0-.986,2.868v9.8l6.857,14.761v6.307h20.571v-6.441l3.429-9.394V125.968a4.338,4.338,0,0,0-.986-2.868A3.127,3.127,0,0,0,243.425,121.942Zm-18.286,36.232V155.49h16v2.684Zm19.429-13.688-3.086,8.32h-16.8l-6.4-13.822v-8.991a1.4,1.4,0,0,1,.314-.973,1,1,0,0,1,.829-.369h2.286v5.368H224v-25.5a1.4,1.4,0,0,1,.314-.973,1,1,0,0,1,.829-.369h1.143a1,1,0,0,1,.829.369,1.4,1.4,0,0,1,.314.973v22.813h2.286v-6.71h3.429v6.71h2.286v-6.71h3.429v6.71h2.286v-6.71h2.286a1,1,0,0,1,.829.369,1.4,1.4,0,0,1,.314.973Zm0,0" transform="translate(-158.359 -85.76)" fill="#49b7a6"/>
      <path id="Path_2" data-name="Path 2" d="M363.657,325.465l-2.057,3.623,1.829,1.61,2.514-4.428V320.5h-2.286Zm0,0" transform="translate(-283.162 -265.532)" fill="#49b7a6"/>
      <path id="Path_3" data-name="Path 3" d="M65.139.5H3.425A3.127,3.127,0,0,0,.982,1.654,4.338,4.338,0,0,0,0,4.522V55.516a4.338,4.338,0,0,0,.986,2.868,3.127,3.127,0,0,0,2.443,1.157H29.711V56.858c-25.787.4-29.714.805-29.714,0V23.528L2.282,4.522A1.4,1.4,0,0,1,2.6,3.55a1,1,0,0,1,.829-.369H65.139a1,1,0,0,1,.829.369,1.4,1.4,0,0,1,.314.973l2.286,12.363v29.93L66.282,49.2v6.319a1.4,1.4,0,0,1-.314.973,1,1,0,0,1-.829.369H64v2.684h1.143a3.127,3.127,0,0,0,2.443-1.157,4.338,4.338,0,0,0,.986-2.868V4.522a4.338,4.338,0,0,0-.986-2.868A3.127,3.127,0,0,0,65.139.5Zm0,0" transform="translate(26.784 0.794)" fill="#49b7a6"/>
      <path id="Path_4" data-name="Path 4" d="M40,72.5H65.143v2.684H40Zm0,0" transform="translate(-7.505 -59.131)" fill="#49b7a6"/>
      <path id="Path_5" data-name="Path 5" d="M344,72.5h13.714v2.684H344Zm0,0" transform="translate(-268.077 -59.131)" fill="#49b7a6"/>
      <path id="Path_7" data-name="Path 7" d="M152,168.5h12.571v2.684H152Zm0,0" transform="translate(-103.505 -139.028)" fill="#49b7a6"/>
      <path id="Path_8" data-name="Path 8" d="M328,168.5h12.414v2.684H328Zm0,0" transform="translate(-254.362 -139.028)" fill="#49b7a6"/>
      <path id="Path_9" data-name="Path 9" d="M158.857,227.184V224.5c-3.787,0-6.857,3.6-6.857,8.052s3.07,8.052,6.857,8.052v-2.684c-2.525,0-4.571-2.4-4.571-5.368S156.332,227.184,158.857,227.184Zm0,0" transform="translate(-103.505 -185.635)" fill="#49b7a6"/>
      <path id="Path_11" data-name="Path 11" d="M244.97,43.865c1.486-4.026-.114-8.857-3.543-10.6s-7.543.134-9.029,4.16a8.941,8.941,0,0,0,0,6.441l2.057-1.074a6.019,6.019,0,0,1,.914-5.9,4.268,4.268,0,0,1,6.514,0,5.8,5.8,0,0,1,.914,5.9Zm0,0" transform="translate(-171.904 -25.934)" fill="#49b7a6"/>
      <g id="mao" transform="matrix(0.53, 0.848, -0.848, 0.53, 46.343, 9.546)">
        <path id="Path_12" data-name="Path 12" d="M29.355,16.684,13.923,15.61,13.028,3.622a3.976,3.976,0,0,0-1.3-2.64A4.536,4.536,0,0,0,8.9-.242L7.616-.332A3.457,3.457,0,0,0,4.944.511,2.957,2.957,0,0,0,4.026,3L5.189,18.58,2.617,18.4a3.457,3.457,0,0,0-2.672.843,2.957,2.957,0,0,0-.918,2.485l.653,8.751L8.381,44.2,8.8,49.838,31.95,51.448l-.429-5.754,3.232-8.123L33.482,20.549a3.975,3.975,0,0,0-1.3-2.64,4.536,4.536,0,0,0-2.826-1.225ZM11.195,47.619l-.179-2.4,18,1.253.179,2.4Zm20.95-10.707L29.227,44.1l-18.9-1.315L2.2,29.94l-.6-8.032a.953.953,0,0,1,.289-.845A1.119,1.119,0,0,1,2.8,20.8l2.572.179.358,4.8,2.572.179L6.6,3.175a.953.953,0,0,1,.289-.845,1.119,1.119,0,0,1,.908-.265l1.286.089a1.448,1.448,0,0,1,.957.394,1.263,1.263,0,0,1,.418.894l1.521,20.379L14.549,24,14.1,18.008l3.858.268.447,5.994,2.572.179-.447-5.994,3.858.268.447,5.994,2.572.179L26.962,18.9l2.572.179a1.448,1.448,0,0,1,.957.394,1.263,1.263,0,0,1,.418.894Zm0,0" transform="translate(0 0)" fill="#49b7a6"/>
        <path id="Path_13" data-name="Path 13" d="M1.729,4.368-.344,7.443,1.821,9.025,4.355,5.266,3.97.111,1.4-.068Zm0,0" transform="translate(24.066 33.177)" fill="#49b7a6"/>
      </g>
      <g id="mao-2" data-name="mao" transform="matrix(0.755, -0.656, 0.656, 0.755, 64.923, 21.683)">
        <path id="Path_12-2" data-name="Path 12" d="M32.621,15.693,17.879,16.876l.986-12.563a3.232,3.232,0,0,0-.849-2.6A3.074,3.074,0,0,0,15.475.841l-1.229.1a4.22,4.22,0,0,0-2.711,1.294A4.4,4.4,0,0,0,10.265,5L8.983,21.335l-2.457.2a4.219,4.219,0,0,0-2.711,1.294,4.4,4.4,0,0,0-1.27,2.77l-.72,9.171L8.112,47.994l-.463,5.9,22.114-1.774.473-6.03,4.376-9.089,1.4-17.839a3.232,3.232,0,0,0-.849-2.6,3.074,3.074,0,0,0-2.541-.873ZM10.3,51.189l.2-2.513L27.7,47.3l-.2,2.512ZM32.194,36.7l-3.928,8.055L10.206,46.2,4.342,33.816,5,25.4a1.4,1.4,0,0,1,.409-.938,1.342,1.342,0,0,1,.918-.417l2.457-.2-.394,5.025,2.457-.2L12.722,4.807a1.4,1.4,0,0,1,.409-.938,1.342,1.342,0,0,1,.918-.417l1.229-.1a.994.994,0,0,1,.864.274,1.046,1.046,0,0,1,.266.884L14.732,25.867l2.457-.2.493-6.281,3.686-.3-.493,6.281,2.457-.2.493-6.281,3.686-.3-.493,6.281,2.457-.2.493-6.281,2.457-.2a.993.993,0,0,1,.864.274,1.046,1.046,0,0,1,.266.884Zm0,0" transform="translate(0 0)" fill="#49b7a6"/>
        <path id="Path_13-2" data-name="Path 13" d="M2.935,5.143.457,8.712,2.3,10.062,5.333,5.7,5.757.3,3.3.495Zm0,0" transform="translate(23.028 33.18)" fill="#49b7a6"/>
      </g>
    </g>
  </g>
</svg>
