<svg xmlns="http://www.w3.org/2000/svg" xmlns:xlink="http://www.w3.org/1999/xlink" width="115" height="80" viewBox="0 0 115 80">
  <defs>
    <clipPath id="clip-path">
      <rect id="Rectangle_105" data-name="Rectangle 105" width="115" height="80" transform="translate(-15.314 3.87)" fill="#49b7a6"/>
    </clipPath>
  </defs>
  <g id="escolha-incompleta" transform="translate(15.314 -3.87)" clip-path="url(#clip-path)">
    <g id="_1356322" data-name="1356322" transform="translate(1.676 6.397)">
      <path id="Path_1" data-name="Path 1" d="M248.523,122.028H232.26V108.542a3.963,3.963,0,0,0-1.169-2.883,4,4,0,0,0-2.9-1.163h-1.355a4,4,0,0,0-2.9,1.163,3.963,3.963,0,0,0-1.169,2.883v17.531h-2.711a4,4,0,0,0-2.9,1.163A3.963,3.963,0,0,0,216,130.119v9.844l8.132,14.834v6.338h24.395v-6.473l4.066-9.44V126.073a3.963,3.963,0,0,0-1.169-2.883,4,4,0,0,0-2.9-1.163Zm-21.684,36.41v-2.7h18.974v2.7Zm23.039-13.755-3.659,8.361H226.3l-7.589-13.89v-9.035a1.27,1.27,0,0,1,.373-.978,1.284,1.284,0,0,1,.983-.371h2.711v5.394h2.711V108.542a1.27,1.27,0,0,1,.373-.978,1.284,1.284,0,0,1,.983-.371h1.355a1.284,1.284,0,0,1,.983.371,1.27,1.27,0,0,1,.373.978v22.925h2.711v-6.743h4.066v6.743h2.71v-6.743H243.1v6.743h2.711v-6.743h2.711a1.284,1.284,0,0,1,.983.371,1.27,1.27,0,0,1,.373.978Zm0,0" transform="translate(-179.404 -86.965)" fill="#49b7a6"/>
      <path id="Path_2" data-name="Path 2" d="M364.039,325.49l-2.439,3.641,2.168,1.618,2.982-4.45v-5.8h-2.71Zm0,0" transform="translate(-300.342 -266.558)" fill="#49b7a6"/>
      <path id="Path_3" data-name="Path 3" d="M77.246.5H4.062a4,4,0,0,0-2.9,1.163A3.963,3.963,0,0,0,0,4.542V55.787a3.963,3.963,0,0,0,1.169,2.883,4,4,0,0,0,2.9,1.163H35.233v-2.7H4.062a1.284,1.284,0,0,1-.983-.371,1.27,1.27,0,0,1-.373-.978V4.542C2.707,3.733,3.249.5,4.062.5H77.246C78.06.5,78.6,3.733,78.6,4.542V55.787a1.27,1.27,0,0,1-.373.978,1.284,1.284,0,0,1-.983.371H75.891v2.7h1.355a4,4,0,0,0,2.9-1.163,3.963,3.963,0,0,0,1.169-2.883V4.542A3.963,3.963,0,0,0,80.143,1.66,4,4,0,0,0,77.246.5Zm0,0" transform="translate(0.004 -0.496)" fill="#49b7a6"/>
      <path id="Path_7" data-name="Path 7" d="M152,168.5h14.908v2.7H152Zm0,0" transform="translate(-126.249 -140.18)" fill="#49b7a6"/>
      <path id="Path_8" data-name="Path 8" d="M328,168.5h18.974v2.7H328Zm0,0" transform="translate(-272.434 -140.18)" fill="#49b7a6"/>
      <path id="Path_9" data-name="Path 9" d="M160.132,227.2v-2.7a8.091,8.091,0,1,0,0,16.182v-2.7a5.394,5.394,0,1,1,0-10.788Zm0,0" transform="translate(-126.249 -186.74)" fill="#49b7a6"/>
      <path id="Path_10" data-name="Path 10" d="M40,264.5H56.263v2.7H40Zm0,0" transform="translate(-33.223 -219.998)" fill="#49b7a6"/>
    </g>
  </g>
</svg>
