<svg xmlns="http://www.w3.org/2000/svg" width="80" height="80" viewBox="0 0 80 80">
  <g id="esquiva" transform="translate(5.088 5.79)">
    <g id="Group_81" data-name="Group 81">
      <path id="Path_36" data-name="Path 36" d="M78.444,170.384l1.582-1.775,8.7-9.769a3.568,3.568,0,0,0-.438-5.161,3.7,3.7,0,0,0-5.024.566l-7.775,8.729a1.188,1.188,0,0,1-1.679.1l-7.1-6.327-4.44-3.953a1.189,1.189,0,0,0-1.679.1l-3.954,4.439L23.551,194.473a3.7,3.7,0,0,0,.018,5.056,3.567,3.567,0,0,0,5.178-.155L61.17,162.961a1.19,1.19,0,0,1,1.679-.1l7.1,6.327,1.777,1.582a4.757,4.757,0,0,0,6.715-.389Zm0,0" transform="translate(-19.471 -131.594)" fill="#49b7a6"/>
      <path id="Path_37" data-name="Path 37" d="M66.373,60.3a3.7,3.7,0,0,0,5.024-.566l7.775-8.729a1.189,1.189,0,0,1,1.679-.1l7.992,7.118a1.189,1.189,0,0,0,1.679-.1l3.163-3.552a1.189,1.189,0,0,0-.1-1.679l-8.879-7.907L82.931,43.21a4.757,4.757,0,0,0-6.715.389l-1.581,1.777-8.7,9.768a3.568,3.568,0,0,0,.437,5.161Zm0,0" transform="translate(-56.12 -36.25)" fill="#49b7a6"/>
      <path id="Path_38" data-name="Path 38" d="M268.1,313.1a3.7,3.7,0,0,0,.018,5.056,3.566,3.566,0,0,0,5.176-.162L282,308.229l1.581-1.775a4.757,4.757,0,0,0-.389-6.716l-1.775-1.581-8.881-7.909a1.188,1.188,0,0,0-1.679.1l-3.163,3.552a1.189,1.189,0,0,0,.1,1.679l7.992,7.117a1.189,1.189,0,0,1,.1,1.679Zm0,0" transform="translate(-230.508 -250.216)" fill="#49b7a6"/>
      <path id="Path_39" data-name="Path 39" d="M315.59,16.617a9.512,9.512,0,1,0-3.17-6.554A9.512,9.512,0,0,0,315.59,16.617Zm0,0" transform="translate(-269.596)" fill="#49b7a6"/>
      <path id="Path_40" data-name="Path 40" d="M1.189,219.328H10.7a1.189,1.189,0,1,0,0-2.378H1.189a1.189,1.189,0,1,0,0,2.378Zm0,0" transform="translate(0 -187.221)" fill="#49b7a6"/>
      <path id="Path_41" data-name="Path 41" d="M34.711,252.85a1.189,1.189,0,0,0,1.189,1.189h9.513a1.189,1.189,0,1,0,0-2.379H35.9A1.189,1.189,0,0,0,34.711,252.85Zm0,0" transform="translate(-29.955 -217.176)" fill="#49b7a6"/>
    </g>
    <rect id="Rectangle_121" data-name="Rectangle 121" width="80" height="80" transform="translate(-5.088 -5.79)" fill="none"/>
  </g>
</svg>
