<svg xmlns="http://www.w3.org/2000/svg" width="90" height="90" viewBox="0 0 90 90">
  <g id="gravidez" transform="translate(-42 10)">
    <g id="Group_84" data-name="Group 84">
      <g id="Group_65" data-name="Group 65" transform="translate(85.344 32.356)">
        <g id="Group_64" data-name="Group 64" transform="translate(0)">
          <path id="Path_49" data-name="Path 49" d="M254.6,240c-2.2,0-3.037,2.761-3.071,2.879a1.9,1.9,0,0,1-1.957,1.461,2.017,2.017,0,0,1-1.937-1.475c-.03-.1-.863-2.866-3.067-2.866-1.967,0-3,1.722-3,3.424,0,2.409,2.178,4.355,6.711,8.178q.631.533,1.3,1.1c.446-.379.881-.744,1.3-1.1,3.052-2.574,6.713-5.455,6.713-8.18C257.6,241.723,256.566,240,254.6,240Z" transform="translate(-241.571 -240.001)" fill="#49b7a6"/>
        </g>
      </g>
      <g id="Group_67" data-name="Group 67" transform="translate(61)">
        <g id="Group_66" data-name="Group 66" transform="translate(0)">
          <path id="Path_50" data-name="Path 50" d="M113.579,38.423a22.079,22.079,0,0,0-13.1-20.234A7.951,7.951,0,0,0,95.932,6.817l-2.575-.861A22.307,22.307,0,0,1,84.677.594,2.047,2.047,0,0,0,83.245,0H71.111a2.02,2.02,0,0,0-1.918,1.382L67.1,7.674A15.675,15.675,0,0,0,68.41,20.5a11.891,11.891,0,0,1-1.839,14.043,21.1,21.1,0,0,0-2.028,25.988l4.886,7.6a2.023,2.023,0,0,0,1.683.9H95.379A2.021,2.021,0,0,0,97.4,67.005a19.487,19.487,0,0,0-1.3-6.934A22.048,22.048,0,0,0,113.579,38.423ZM97.265,47.052c-.812.685-1.677,1.416-2.583,2.2a2.025,2.025,0,0,1-2.65,0c-.908-.788-1.773-1.517-2.585-2.2C84.717,43.06,81.3,40.177,81.3,35.781a7.186,7.186,0,0,1,7.04-7.469A6.584,6.584,0,0,1,93.357,30.6a6.584,6.584,0,0,1,5.016-2.293,7.187,7.187,0,0,1,7.041,7.469C105.413,40.5,101.242,43.7,97.265,47.052Z" transform="translate(-61 0)" fill="#49b7a6"/>
        </g>
      </g>
    </g>
    <rect id="Rectangle_127" data-name="Rectangle 127" width="90" height="90" transform="translate(42 -10)" fill="none"/>
  </g>
</svg>
