<svg xmlns="http://www.w3.org/2000/svg" width="100" height="110" viewBox="0 0 100 110">
  <g id="imunidade" transform="translate(-26.505 2.978)">
    <g id="Group_83" data-name="Group 83">
      <path id="Path_44" data-name="Path 44" d="M171.674,129a21.547,21.547,0,1,0,21.547,21.547A21.571,21.571,0,0,0,171.674,129Zm13.414,24.59H174.717V163.96h-6.086V153.59H158.26V147.5h10.371V137.133h6.086V147.5h10.371Z" transform="translate(-95.355 -102.83)" fill="#49b7a6"/>
      <path id="Path_45" data-name="Path 45" d="M119.207,16.4A13.567,13.567,0,0,1,106.16,3l-.038-3H46.515l-.038,3A13.567,13.567,0,0,1,33.431,16.4l-2.926.113V41.023c0,22.139,11.479,42.679,29.957,53.605L76.319,104l15.857-9.376c18.478-10.926,29.957-31.467,29.957-53.605V16.516ZM76.319,75.349a27.633,27.633,0,1,1,27.633-27.633A27.664,27.664,0,0,1,76.319,75.349Z" fill="#49b7a6"/>
    </g>
    <rect id="Rectangle_123" data-name="Rectangle 123" width="100" height="110" transform="translate(26.505 -2.978)" fill="none"/>
  </g>
</svg>
