<svg xmlns="http://www.w3.org/2000/svg" width="80" height="80.195" viewBox="0 0 80 80.195">
  <g id="inteligencia_" data-name="inteligencia+" transform="translate(4.999 5.001)">
    <g id="Group_80" data-name="Group 80">
      <g id="Group_48" data-name="Group 48" transform="translate(11.265 -0.001)">
        <g id="Group_47" data-name="Group 47">
          <path id="Path_28" data-name="Path 28" d="M104.816,38.929V37.547H98.558A1.252,1.252,0,0,1,97.306,36.3V32.54a1.252,1.252,0,1,1,2.5,0v2.5h5.006V28.786H99.809a1.252,1.252,0,0,1,0-2.5h5.006V20.025H99.809v1.252a1.252,1.252,0,0,1-1.252,1.252H92.3a1.252,1.252,0,1,1,0-2.5h5.006V18.773a1.252,1.252,0,0,1,1.252-1.252h6.258V13.767H99.809a1.252,1.252,0,0,1,0-2.5h5.006v-2.5H99.809a1.252,1.252,0,0,1-1.252-1.252v-2.5a1.252,1.252,0,1,1,2.5,0V6.257h3.755V5.006c0-.028.014-.051.016-.079a.785.785,0,0,1-.016-.078C104.816,1.7,101.68,0,98.73,0a6.01,6.01,0,0,0-6.01,5.187,8.116,8.116,0,0,1,2.62.879,1.252,1.252,0,0,1-1.194,2.2A5.675,5.675,0,0,0,91.4,7.574a5.579,5.579,0,0,0-5.662,5.481,5.255,5.255,0,0,0,.29,1.708,9.147,9.147,0,0,1,2.774-.436,1.252,1.252,0,0,1,0,2.5,6.6,6.6,0,0,0-2.885.652h-.005a6.415,6.415,0,0,0-1.72,1.208,1.877,1.877,0,0,0-.172.173,6.066,6.066,0,0,0-1.466,2.508,2.97,2.97,0,0,0-.114.407c-.036.158-.065.29-.086.426-.008.064-.023.161-.029.26a2.281,2.281,0,0,0-.024.243c-.01.194-.018.32-.018.446a6.229,6.229,0,0,0,1.89,4.432,8.472,8.472,0,0,1,3.408-1.954,1.252,1.252,0,0,1,.711,2.4,5.953,5.953,0,0,0-3.02,2.053c-.012.015-.015.021-.026.035-.088.11-.17.22-.245.337a6.2,6.2,0,0,0-.482.851c-.059.134-.119.274-.165.415a3.687,3.687,0,0,0-.166.563c-.046.176-.071.294-.091.413a5.307,5.307,0,0,0-.086.975,5.848,5.848,0,0,0,3.549,5.346,9.419,9.419,0,0,1,1.978-5.692,1.252,1.252,0,0,1,1.98,1.533A7.015,7.015,0,0,0,90.186,40.5V40.5l0,.012a3.728,3.728,0,0,0,.1.4,1.44,1.44,0,0,1,.034.146c.009.024.053.154.059.178a3.96,3.96,0,0,0,.169.474,3.488,3.488,0,0,0,.166.378,1.234,1.234,0,0,1,.055.115c.023.036.074.149.093.188a1.75,1.75,0,0,0,.114.214,1.066,1.066,0,0,1,.071.123l.069.109a6.507,6.507,0,0,0,.391.566l.274.342a7.181,7.181,0,0,0,1.225,1.121c.109.083.2.143.289.2a7.379,7.379,0,0,0,.927.516,6.736,6.736,0,0,0,.651.274c.131.046.277.091.422.135.078.024.172.05.259.071a6.107,6.107,0,0,0,.748.149c.093.015.168.026.242.033a6.828,6.828,0,0,0,.889.055,7.284,7.284,0,0,0,7.381-7.165c0-.039.019-.07.021-.108S104.816,38.966,104.816,38.929ZM93.551,11.264H94.8a1.252,1.252,0,0,1,0,2.5H93.551a1.252,1.252,0,1,1,0-2.5ZM94.8,28.786H93.551a1.252,1.252,0,1,1,0-2.5H94.8a1.252,1.252,0,1,1,0,2.5Z" transform="translate(-82.287 0.001)" fill="#40cffc"/>
        </g>
      </g>
      <g id="Group_50" data-name="Group 50" transform="translate(36.298 11.673)">
        <g id="Group_49" data-name="Group 49">
          <path id="Path_29" data-name="Path 29" d="M286.6,85.277a7.69,7.69,0,0,1-.383,4.169,8.857,8.857,0,0,1,1.315,1.07,3.3,3.3,0,0,1,.26.265,8.553,8.553,0,0,1,2.021,3.5,4.169,4.169,0,0,1,.161.6c.034.145.074.333.1.518s.046.342.056.5a2.256,2.256,0,0,1,.029.412c.009.093.018.27.018.447a8.749,8.749,0,0,1-2.826,6.411,7.217,7.217,0,0,1,.333.641c.009.019.02.036.029.055l.005.011.006.012c.094.215.186.439.26.663a5.347,5.347,0,0,1,.231.8c.047.176.085.356.115.537a7.861,7.861,0,0,1,.121,1.392,8.4,8.4,0,0,1-6.426,8.138c-.018.056-.035.111-.054.165a5.623,5.623,0,0,1-.259.722,4.687,4.687,0,0,1-.234.523,3.168,3.168,0,0,1-.149.308,4.172,4.172,0,0,1-.225.408c-.045.08-.1.163-.148.243a8.5,8.5,0,0,1-.529.763c-.1.131-.207.26-.312.389a9.806,9.806,0,0,1-1.695,1.566c-.1.079-.229.164-.353.248a9.953,9.953,0,0,1-1.278.713,9,9,0,0,1-.835.349c-.2.071-.379.129-.562.183-.146.044-.294.085-.432.116a7.583,7.583,0,0,1-.944.185c-.114.02-.264.041-.414.053a8.408,8.408,0,0,1-1.079.063,9.938,9.938,0,0,1-7.379-3.272v12.906c4.381-2.044,13.105-2.124,14.392-2.124s10.011.079,14.393,2.124V87.371C293.715,87,291.529,85.9,286.6,85.277Z" transform="translate(-265.153 -85.277)" fill="#40cffc"/>
        </g>
      </g>
      <g id="Group_52" data-name="Group 52" transform="translate(36.276 -0.001)">
        <g id="Group_51" data-name="Group 51" transform="translate(0 0)">
          <path id="Path_30" data-name="Path 30" d="M285.725,32.7a3.371,3.371,0,0,0-.078-.356,3.757,3.757,0,0,0-.154-.547c-.014-.043-.026-.071-.04-.109-.046-.135-.1-.269-.159-.4a5.914,5.914,0,0,0-.462-.812,4.431,4.431,0,0,0-.265-.367,6.011,6.011,0,0,0-3.039-2.078,1.252,1.252,0,1,1,.711-2.4,8.454,8.454,0,0,1,3.407,1.955,6.229,6.229,0,0,0,1.89-4.432c0-.126-.008-.252-.015-.372a1.339,1.339,0,0,0-.012-.2c-.02-.217-.035-.314-.047-.412s-.046-.234-.075-.36a2.565,2.565,0,0,0-.1-.362,6.162,6.162,0,0,0-1.471-2.563,1.8,1.8,0,0,0-.13-.136,6.6,6.6,0,0,0-1.78-1.264H283.9a6.6,6.6,0,0,0-2.885-.652,1.252,1.252,0,0,1,0-2.5,9.116,9.116,0,0,1,2.774.436,5.222,5.222,0,0,0,.29-1.708,5.577,5.577,0,0,0-5.653-5.481h-.007a5.723,5.723,0,0,0-2.831.741,1.252,1.252,0,0,1-1.225-2.183,8.168,8.168,0,0,1,2.74-.945A6.011,6.011,0,0,0,271.095,0c-2.95,0-6.085,1.7-6.085,4.85,0,.028-.014.051-.016.079s.016.05.016.078V6.258h5.006a1.252,1.252,0,0,1,1.252,1.252v2.5a1.252,1.252,0,1,1-2.5,0V8.762h-3.755v6.258h5.006a1.252,1.252,0,0,1,0,2.5h-5.006v6.258h5.006v-2.5a1.252,1.252,0,0,1,1.252-1.252h6.258a1.252,1.252,0,1,1,0,2.5h-5.006v2.5a1.252,1.252,0,0,1-1.252,1.252h-6.258v3.755h5.006a1.252,1.252,0,0,1,0,2.5h-5.006v2.5h5.006a1.252,1.252,0,0,1,1.252,1.252v3.755a1.252,1.252,0,1,1-2.5,0v-2.5h-3.755V38.93c0,.039-.019.07-.021.108s.021.069.021.108a7.284,7.284,0,0,0,7.379,7.165,6.471,6.471,0,0,0,.822-.048c.141-.014.217-.026.285-.036a6.1,6.1,0,0,0,.72-.14c.14-.033.235-.06.322-.085.135-.041.28-.086.424-.138a6.453,6.453,0,0,0,.615-.258,7.541,7.541,0,0,0,.954-.528c.088-.06.178-.12.268-.188a7.281,7.281,0,0,0,1.25-1.143l.265-.332a6.329,6.329,0,0,0,.393-.569l.07-.114c.018-.031.05-.089.07-.12a1.758,1.758,0,0,0,.114-.214c.019-.039.04-.076.063-.114s.065-.153.085-.189a2.681,2.681,0,0,0,.147-.329,4.368,4.368,0,0,0,.189-.523l.061-.19c.005-.021.025-.114.031-.133a3.706,3.706,0,0,0,.1-.4l0-.012V40.5a7.015,7.015,0,0,0-1.334-5.635,1.252,1.252,0,0,1,1.98-1.533,9.412,9.412,0,0,1,1.978,5.692,5.852,5.852,0,0,0,3.549-5.346,5.317,5.317,0,0,0-.083-.954Zm-9.452-15.177h-1.252a1.252,1.252,0,1,1,0-2.5h1.252a1.252,1.252,0,1,1,0,2.5Zm0,15.019h-1.252a1.252,1.252,0,1,1,0-2.5h1.252a1.252,1.252,0,1,1,0,2.5Z" transform="translate(-264.988 0)" fill="#40cffc"/>
        </g>
      </g>
      <g id="Group_54" data-name="Group 54" transform="translate(0.001 18.773)">
        <g id="Group_53" data-name="Group 53" transform="translate(0)">
          <path id="Path_31" data-name="Path 31" d="M67.587,137.145V179.7a1.252,1.252,0,0,1-2.5,0c-.461-.83-5.687-2.5-14.393-2.5s-13.933,1.673-14.413,2.611a1.2,1.2,0,0,1-1.24,1.2,1.29,1.29,0,0,1-1.243-1.305c-.461-.83-5.687-2.5-14.393-2.5s-13.932,1.674-14.413,2.611a1.2,1.2,0,0,1-1.24,1.2A1.29,1.29,0,0,1,2.5,179.7V137.145H0v46.309H28.913a1.252,1.252,0,0,1,1.227,1.005,5.008,5.008,0,0,0,9.811,0,1.254,1.254,0,0,1,1.228-1.005H70.09V137.145Z" transform="translate(-0.001 -137.145)" fill="#40cffc"/>
        </g>
      </g>
      <g id="Group_56" data-name="Group 56" transform="translate(5.007 11.673)">
        <g id="Group_55" data-name="Group 55">
          <path id="Path_32" data-name="Path 32" d="M57.98,122.415a8.778,8.778,0,0,1-1.146-.07c-.083,0-.233-.026-.37-.049a8.32,8.32,0,0,1-.972-.194c-.084-.019-.233-.06-.368-.1-.194-.059-.377-.116-.559-.183-.3-.113-.591-.229-.871-.366a9.842,9.842,0,0,1-1.223-.682c-.156-.105-.28-.19-.4-.284a9.716,9.716,0,0,1-1.633-1.5c-.148-.18-.252-.308-.357-.443a8.9,8.9,0,0,1-.538-.777c-.044-.068-.093-.145-.138-.227a4.458,4.458,0,0,1-.224-.408,3.088,3.088,0,0,1-.169-.357,4,4,0,0,1-.234-.523,5.9,5.9,0,0,1-.26-.741c-.01-.026-.021-.06-.033-.1a8.4,8.4,0,0,1-6.426-8.138,7.765,7.765,0,0,1,.124-1.4,9.729,9.729,0,0,1,.344-1.32v0l.006-.018c.008-.019.012-.038.02-.056.046-.15.139-.374.233-.588.116-.25.24-.491.373-.718a8.754,8.754,0,0,1-2.826-6.412c0-.178.009-.354.02-.521a2.9,2.9,0,0,1,.04-.454,3.181,3.181,0,0,1,.038-.345c.035-.22.075-.407.115-.583a4.48,4.48,0,0,1,.18-.648,8.463,8.463,0,0,1,2.016-3.446,3.412,3.412,0,0,1,.3-.3,8.217,8.217,0,0,1,1.254-1.015,7.688,7.688,0,0,1-.383-4.168c-4.84.612-7.033,1.693-7.337,2.175v44.6c4.382-2.044,13.107-2.124,14.393-2.124s10.011.08,14.393,2.124V119.143A9.93,9.93,0,0,1,57.98,122.415Z" transform="translate(-36.573 -85.276)" fill="#40cffc"/>
        </g>
      </g>
    </g>
    <rect id="Rectangle_120" data-name="Rectangle 120" width="80" height="80" transform="translate(-4.999 -5.001)" fill="none"/>
    <g id="seta-cima" transform="translate(42.786 37.999)">
      <g id="Group_63" data-name="Group 63" transform="translate(-1.809 -1.299)">
        <path id="Path_46" data-name="Path 46" d="M65.008,16.709a.783.783,0,0,1-.722.483H55.73V36.713a.781.781,0,0,1-.781.781H42.455a.781.781,0,0,1-.781-.781V17.192H33.085a.781.781,0,0,1-.553-1.332L48.11.23a.782.782,0,0,1,1.106,0L64.84,15.858A.779.779,0,0,1,65.008,16.709Z" transform="translate(-32.304)" fill="#49b749" stroke="#020f18" stroke-width="2"/>
      </g>
      <rect id="Rectangle_124" data-name="Rectangle 124" width="35" height="39" transform="translate(-2.786 -2)" fill="none"/>
    </g>
  </g>
</svg>
