<svg xmlns="http://www.w3.org/2000/svg" width="80" height="80" viewBox="0 0 80 80">
  <g id="manual_" data-name="manual+" transform="translate(-49.999 5)">
    <g id="Group_57" data-name="Group 57" transform="translate(63.999)">
      <path id="Path_33" data-name="Path 33" d="M116.5,60.3a1.407,1.407,0,0,0,.066-.454V1.46A1.459,1.459,0,0,0,115.106,0H69.84A5.847,5.847,0,0,0,64,5.841V64.249a5.847,5.847,0,0,0,5.841,5.841h45.266a1.46,1.46,0,0,0,1.215-2.27,6.421,6.421,0,0,1-.01-7.127A1.425,1.425,0,0,0,116.5,60.3ZM70.268,17.95a1.46,1.46,0,0,1,2.065,0l5.841,5.841a2.67,2.67,0,1,0,3.776-3.776l-5.841-5.841a1.46,1.46,0,0,1,2.065-2.065l5.841,5.841a5.581,5.581,0,0,1,.879,6.719l5.39,5.39,5.236-5.236-1.888-1.888a1.46,1.46,0,0,1,0-2.065l8.761-8.761a1.46,1.46,0,0,1,2.065,0L110.3,17.95a1.46,1.46,0,0,1,0,2.065l-8.761,8.761a1.46,1.46,0,0,1-2.065,0l-1.888-1.888-5.236,5.236,4.567,4.567a1.442,1.442,0,0,1,1.7.241l8.761,8.761a1.46,1.46,0,0,1,0,2.065l-1.46,1.46a1.46,1.46,0,0,1-2.065,0l-8.761-8.761a1.442,1.442,0,0,1-.241-1.7l-4.567-4.567-4.567,4.567a1.442,1.442,0,0,1-.241,1.7l-8.761,8.761a1.46,1.46,0,0,1-2.065,0l-1.46-1.46a1.46,1.46,0,0,1,0-2.065l8.761-8.761a1.442,1.442,0,0,1,1.7-.241l4.567-4.567-5.39-5.39a5.535,5.535,0,0,1-6.719-.878l-5.841-5.841A1.46,1.46,0,0,1,70.268,17.95Zm42.517,49.219H69.84a2.92,2.92,0,0,1,0-5.841h42.944A9.317,9.317,0,0,0,112.784,67.169Z" transform="translate(-63.999)" fill="#fcb040"/>
    </g>
    <rect id="Rectangle_118" data-name="Rectangle 118" width="80" height="80" transform="translate(49.999 -5)" fill="none"/>
    <g id="seta-cima" transform="translate(97.785 37)">
      <g id="Group_63" data-name="Group 63" transform="translate(-1.809 -1.299)">
        <path id="Path_46" data-name="Path 46" d="M65.008,16.709a.783.783,0,0,1-.722.483H55.73V36.713a.781.781,0,0,1-.781.781H42.455a.781.781,0,0,1-.781-.781V17.192H33.085a.781.781,0,0,1-.553-1.332L48.11.23a.782.782,0,0,1,1.106,0L64.84,15.858A.779.779,0,0,1,65.008,16.709Z" transform="translate(-32.304)" fill="#49b749" stroke="#020f18" stroke-width="2"/>
      </g>
      <rect id="Rectangle_124" data-name="Rectangle 124" width="35" height="39" transform="translate(-2.786 -2)" fill="none"/>
    </g>
  </g>
</svg>
