<svg xmlns="http://www.w3.org/2000/svg" xmlns:xlink="http://www.w3.org/1999/xlink" width="115" height="80" viewBox="0 0 115 80">
  <defs>
    <clipPath id="clip-path">
      <rect id="Rectangle_107" data-name="Rectangle 107" width="115" height="80" transform="translate(-15 -1)"/>
    </clipPath>
  </defs>
  <g id="negacao-escolha" transform="translate(15 1)" clip-path="url(#clip-path)">
    <g id="_1356322" data-name="1356322" transform="translate(1.709 2.184)">
      <path id="Path_1" data-name="Path 1" d="M248.818,121.976H232.407V108.53a3.927,3.927,0,0,0-1.179-2.874,4.065,4.065,0,0,0-2.923-1.16h-1.368a4.065,4.065,0,0,0-2.923,1.16,3.927,3.927,0,0,0-1.179,2.874V126.01H220.1a4.065,4.065,0,0,0-2.923,1.16A3.927,3.927,0,0,0,216,130.043v9.815l8.205,14.79v6.319h24.616v-6.454l4.1-9.412V126.01a3.927,3.927,0,0,0-1.179-2.874,4.065,4.065,0,0,0-2.923-1.16Zm-21.881,36.3V155.59h19.146v2.689Zm23.248-13.715-3.692,8.336h-20.1l-7.658-13.849v-9.009a1.258,1.258,0,0,1,.376-.975,1.3,1.3,0,0,1,.992-.37h2.735v5.378h2.735V108.53a1.258,1.258,0,0,1,.376-.975,1.3,1.3,0,0,1,.992-.37H228.3a1.3,1.3,0,0,1,.992.37,1.258,1.258,0,0,1,.376.975v22.858h2.735v-6.723h4.1v6.723h2.735v-6.723h4.1v6.723h2.735v-6.723h2.735a1.3,1.3,0,0,1,.992.37,1.258,1.258,0,0,1,.376.975Zm0,0" transform="translate(-179.072 -87.017)" fill="#49b7a6"/>
      <path id="Path_2" data-name="Path 2" d="M364.062,325.475l-2.462,3.63,2.188,1.613,3.009-4.437V320.5h-2.735Zm0,0" transform="translate(-299.786 -266.717)" fill="#49b7a6"/>
      <path id="Path_3" data-name="Path 3" d="M77.947.5H4.1a4.065,4.065,0,0,0-2.923,1.16A3.927,3.927,0,0,0,0,4.53V55.624A3.927,3.927,0,0,0,1.176,58.5,4.065,4.065,0,0,0,4.1,59.657H35.553V56.968H4.1a1.3,1.3,0,0,1-.992-.37,1.258,1.258,0,0,1-.376-.975V4.53a1.258,1.258,0,0,1,.376-.975,1.3,1.3,0,0,1,.992-.37H77.947a1.3,1.3,0,0,1,.992.37,1.258,1.258,0,0,1,.376.975V55.624a1.258,1.258,0,0,1-.376.975,1.3,1.3,0,0,1-.992.37H76.579v2.689h1.368A4.065,4.065,0,0,0,80.87,58.5a3.927,3.927,0,0,0,1.179-2.874V4.53A3.927,3.927,0,0,0,80.87,1.656,4.065,4.065,0,0,0,77.947.5Zm0,0" transform="translate(0.004 -0.496)" fill="#49b7a6"/>
      <path id="Path_4" data-name="Path 4" d="M40,72.5H70.086v2.689H40Zm0,0" transform="translate(-33.162 -60.398)" fill="#49b7a6"/>
      <path id="Path_5" data-name="Path 5" d="M344,72.5h16.411v2.689H344Zm0,0" transform="translate(-285.195 -60.398)" fill="#49b7a6"/>
      <path id="Path_6" data-name="Path 6" d="M48.205,128.5a8.069,8.069,0,1,0,8.205,8.067A8.137,8.137,0,0,0,48.205,128.5Zm0,13.446a5.379,5.379,0,1,1,5.47-5.378A5.425,5.425,0,0,1,48.205,141.946Zm0,0" transform="translate(-33.162 -106.986)" fill="#49b7a6"/>
      <path id="Path_7" data-name="Path 7" d="M152,168.5h15.043v2.689H152Zm0,0" transform="translate(-126.016 -140.264)" fill="#49b7a6"/>
      <path id="Path_8" data-name="Path 8" d="M328,168.5h19.146v2.689H328Zm0,0" transform="translate(-271.93 -140.264)" fill="#49b7a6"/>
      <path id="Path_9" data-name="Path 9" d="M160.205,227.189V224.5a8.069,8.069,0,1,0,0,16.135v-2.689a5.379,5.379,0,1,1,0-10.757Zm0,0" transform="translate(-126.016 -186.852)" fill="#49b7a6"/>
      <path id="Path_10" data-name="Path 10" d="M40,264.5H56.411v2.689H40Zm0,0" transform="translate(-33.162 -220.129)" fill="#49b7a6"/>
      <path id="Path_11" data-name="Path 11" d="M247.56,43.887a8.094,8.094,0,0,0-4.239-10.622,8.342,8.342,0,0,0-10.8,4.168,7.608,7.608,0,0,0,0,6.454l2.462-1.076a5.263,5.263,0,0,1,1.094-5.916,5.777,5.777,0,0,1,7.795,0,5.083,5.083,0,0,1,1.094,5.916Zm0,0" transform="translate(-192.173 -27.214)" fill="#49b7a6"/>
    </g>
    <line id="Line_1" data-name="Line 1" y1="72.27" x2="82.053" transform="translate(1.795 2.269)" fill="none" stroke="#ff0404" stroke-width="10"/>
    <line id="Line_2" data-name="Line 2" x2="82.053" y2="72.27" transform="translate(1.795 2.269)" fill="none" stroke="#ff0404" stroke-width="10"/>
  </g>
</svg>
