<svg xmlns="http://www.w3.org/2000/svg" width="80" height="80" viewBox="0 0 80 80">
  <g id="rank" transform="translate(-58 5)">
    <g id="Group_85" data-name="Group 85">
      <path id="Path_86" data-name="Path 86" d="M123.039,2.051A2.051,2.051,0,0,0,120.988,0H75.051A2.051,2.051,0,0,0,73,2.051V52.5a2.05,2.05,0,0,0,.913,1.706L96.882,69.656a2.051,2.051,0,0,0,2.275,0l22.969-15.449a2.051,2.051,0,0,0,.913-1.706C123.039,49.682,123.039,3.724,123.039,2.051ZM77.1,38.832,96.882,52.019a2.051,2.051,0,0,0,2.275,0l19.78-13.187v3.821L98.02,56.6,77.1,42.652ZM118.938,4.1V33.9L98.02,47.848,77.1,33.9V4.1ZM98.02,65.485,77.1,51.4V47.582L96.882,60.769a2.051,2.051,0,0,0,2.275,0l19.78-13.187V51.4Z" fill="#fcfc40"/>
      <path id="Path_87" data-name="Path 87" d="M151.19,77.715l6.455,4.689-2.465,7.588a2.051,2.051,0,0,0,3.156,2.293l6.455-4.689,6.455,4.69a2.051,2.051,0,0,0,3.156-2.293L171.935,82.4l6.455-4.689A2.051,2.051,0,0,0,177.184,74h-7.978l-2.465-7.588a2.051,2.051,0,0,0-3.9,0L160.374,74H152.4a2.051,2.051,0,0,0-1.205,3.71Zm10.674.392a2.051,2.051,0,0,0,1.95-1.417l.975-3,.975,3a2.051,2.051,0,0,0,1.95,1.417h3.157l-2.554,1.855a2.051,2.051,0,0,0-.745,2.293l.975,3L165.995,83.4a2.051,2.051,0,0,0-2.411,0l-2.554,1.855.976-3a2.051,2.051,0,0,0-.745-2.293l-2.554-1.855Z" transform="translate(-66.77 -56.113)" fill="#fcfc40"/>
    </g>
    <rect id="Rectangle_143" data-name="Rectangle 143" width="80" height="80" transform="translate(58 -5)" fill="none"/>
  </g>
</svg>
