<svg xmlns="http://www.w3.org/2000/svg" width="80" height="80.195" viewBox="0 0 80 80.195">
  <g id="rapidez_" data-name="rapidez+" transform="translate(4 -32.665)">
    <g id="Group_58" data-name="Group 58" transform="translate(0 42.665)">
      <path id="Path_34" data-name="Path 34" d="M70.48,70.18,37.675,43.339a2.981,2.981,0,0,0-4.87,2.308V66.2L4.87,43.339A2.981,2.981,0,0,0,0,45.648V99.329a2.99,2.99,0,0,0,1.7,2.7,3.029,3.029,0,0,0,1.279.286,2.976,2.976,0,0,0,1.888-.674L32.8,78.781V99.329a2.99,2.99,0,0,0,1.7,2.7,3.029,3.029,0,0,0,1.279.286,2.976,2.976,0,0,0,1.888-.674L70.48,74.8a2.982,2.982,0,0,0,0-4.617Z" transform="translate(0 -42.665)" fill="#49b749"/>
    </g>
    <rect id="Rectangle_119" data-name="Rectangle 119" width="80" height="80" transform="translate(-4 32.665)" fill="none"/>
    <g id="seta-cima" transform="translate(43.786 75.665)">
      <g id="Group_63" data-name="Group 63" transform="translate(-1.809 -1.299)">
        <path id="Path_46" data-name="Path 46" d="M65.008,16.709a.783.783,0,0,1-.722.483H55.73V36.713a.781.781,0,0,1-.781.781H42.455a.781.781,0,0,1-.781-.781V17.192H33.085a.781.781,0,0,1-.553-1.332L48.11.23a.782.782,0,0,1,1.106,0L64.84,15.858A.779.779,0,0,1,65.008,16.709Z" transform="translate(-32.304)" fill="#49b749" stroke="#020f18" stroke-width="2"/>
      </g>
      <rect id="Rectangle_124" data-name="Rectangle 124" width="35" height="39" transform="translate(-2.786 -2)" fill="none"/>
    </g>
  </g>
</svg>
