<svg xmlns="http://www.w3.org/2000/svg" width="80" height="80" viewBox="0 0 80 80">
  <g id="rapidez" transform="translate(4 -32.665)">
    <g id="Group_58" data-name="Group 58" transform="translate(0 42.665)">
      <path id="Path_34" data-name="Path 34" d="M70.48,70.18,37.675,43.339a2.981,2.981,0,0,0-4.87,2.308V66.2L4.87,43.339A2.981,2.981,0,0,0,0,45.648V99.329a2.99,2.99,0,0,0,1.7,2.7,3.029,3.029,0,0,0,1.279.286,2.976,2.976,0,0,0,1.888-.674L32.8,78.781V99.329a2.99,2.99,0,0,0,1.7,2.7,3.029,3.029,0,0,0,1.279.286,2.976,2.976,0,0,0,1.888-.674L70.48,74.8a2.982,2.982,0,0,0,0-4.617Z" transform="translate(0 -42.665)" fill="#49b749"/>
    </g>
    <rect id="Rectangle_119" data-name="Rectangle 119" width="80" height="80" transform="translate(-4 32.665)" fill="none"/>
  </g>
</svg>
