<svg xmlns="http://www.w3.org/2000/svg" width="100" height="110" viewBox="0 0 100 110">
  <g id="seta-baixo" transform="translate(-27.519 3.312)">
    <g id="Group_63" data-name="Group 63" transform="translate(32.304)">
      <path id="Path_46" data-name="Path 46" d="M122.73,57.47a2.164,2.164,0,0,0-1.995-1.334H97.076V2.159A2.16,2.16,0,0,0,94.917,0H60.372a2.16,2.16,0,0,0-2.159,2.159V56.136H34.463a2.158,2.158,0,0,0-1.529,3.684l43.073,43.216a2.163,2.163,0,0,0,3.057,0l43.2-43.216A2.155,2.155,0,0,0,122.73,57.47Z" transform="translate(-32.304)" fill="#fc5a40"/>
    </g>
    <rect id="Rectangle_125" data-name="Rectangle 125" width="100" height="110" transform="translate(27.519 -3.312)" fill="none"/>
  </g>
</svg>
