<svg xmlns="http://www.w3.org/2000/svg" width="100" height="110" viewBox="0 0 100 110">
  <g id="seta-cima" transform="translate(2.786 2)">
    <g id="Group_63" data-name="Group 63" transform="translate(0)">
      <path id="Path_46" data-name="Path 46" d="M125.619,47.676a2.233,2.233,0,0,1-2.059,1.377H99.145v55.7a2.229,2.229,0,0,1-2.228,2.228H61.269a2.229,2.229,0,0,1-2.228-2.228v-55.7H34.532a2.227,2.227,0,0,1-1.577-3.8L77.4.655a2.232,2.232,0,0,1,3.155,0l44.579,44.6A2.223,2.223,0,0,1,125.619,47.676Z" transform="translate(-32.304)" fill="#49b749"/>
    </g>
    <rect id="Rectangle_124" data-name="Rectangle 124" width="100" height="110" transform="translate(-2.786 -2)" fill="none"/>
  </g>
</svg>
