<svg xmlns="http://www.w3.org/2000/svg" width="115" height="80" viewBox="0 0 115 80">
  <g id="sobre-escolhas" transform="translate(15 0.5)">
    <rect id="bg" width="115" height="80" transform="translate(-15 -0.5)" fill="none"/>
    <path id="Path_7" data-name="Path 7" d="M250.23,123.041H233.115V108.779a4.2,4.2,0,0,0-4.279-4.279H227.41a4.2,4.2,0,0,0-4.279,4.279V127.32h-2.852A4.2,4.2,0,0,0,216,131.6V142.01l8.557,15.689v6.7H250.23v-6.846l4.279-9.984V127.32a4.2,4.2,0,0,0-4.279-4.279ZM227.41,161.55V158.7h19.967v2.852ZM251.656,147l-3.851,8.843H226.84l-7.987-14.69V131.6a1.347,1.347,0,0,1,1.426-1.426h2.852v5.7h2.853v-27.1a1.347,1.347,0,0,1,1.426-1.426h1.426a1.347,1.347,0,0,1,1.426,1.426v24.246h2.852v-7.131h4.279v7.131h2.852v-7.131h4.279v7.131h2.853v-7.131h2.852a1.347,1.347,0,0,1,1.426,1.426Zm0,0" transform="translate(-178.066 -85.902)" fill="#49b7a6"/>
    <path id="Path_8" data-name="Path 8" d="M364.169,325.778l-2.567,3.85,2.281,1.712,3.138-4.707V320.5h-2.852Zm0,0" transform="translate(-297.597 -263.394)" fill="#49b7a6"/>
    <path id="Path_9" data-name="Path 9" d="M80.75.5H4.25A4.173,4.173,0,0,0,0,4.748V58.563a4.173,4.173,0,0,0,4.25,4.248H36.833V59.979H4.25a1.338,1.338,0,0,1-1.417-1.416V4.748A1.338,1.338,0,0,1,4.25,3.332h76.5a1.338,1.338,0,0,1,1.417,1.416V58.563a1.338,1.338,0,0,1-1.417,1.416H79.333v2.832H80.75A4.173,4.173,0,0,0,85,58.563V4.748A4.173,4.173,0,0,0,80.75.5Zm0,0" fill="#49b7a6"/>
    <path id="Path_10" data-name="Path 10" d="M40,72.5H71.377v2.852H40Zm0,0" transform="translate(-32.869 -59.164)" fill="#49b7a6"/>
    <path id="Path_11" data-name="Path 11" d="M344,72.5h17.115v2.852H344Zm0,0" transform="translate(-283.246 -59.164)" fill="#49b7a6"/>
    <path id="Path_12" data-name="Path 12" d="M48.557,128.5a8.557,8.557,0,1,0,8.557,8.557A8.583,8.583,0,0,0,48.557,128.5Zm0,14.262a5.7,5.7,0,1,1,5.7-5.7A5.721,5.721,0,0,1,48.557,142.762Zm0,0" transform="translate(-32.869 -105.345)" fill="#49b7a6"/>
    <path id="Path_13" data-name="Path 13" d="M152,168.5h15.689v2.852H152Zm0,0" transform="translate(-125.124 -138.225)" fill="#49b7a6"/>
    <path id="Path_14" data-name="Path 14" d="M328,168.5h19.967v2.852H328Zm0,0" transform="translate(-270.099 -138.225)" fill="#49b7a6"/>
    <path id="Path_15" data-name="Path 15" d="M160.557,227.352V224.5a8.557,8.557,0,1,0,0,17.115v-2.852a5.7,5.7,0,1,1,0-11.41Zm0,0" transform="translate(-125.104 -184.354)" fill="#49b7a6"/>
    <path id="Path_16" data-name="Path 16" d="M40,264.5H57.115v2.852H40Zm0,0" transform="translate(-32.869 -217.21)" fill="#49b7a6"/>
    <path id="Path_17" data-name="Path 17" d="M248.237,44.573a8.559,8.559,0,0,0-15.689-6.846,8.2,8.2,0,0,0,0,6.846l2.567-1.141a5.653,5.653,0,0,1,1.141-6.275,5.951,5.951,0,0,1,8.129,0,5.459,5.459,0,0,1,1.141,6.275Zm0,0" transform="translate(-190.821 -26.387)" fill="#49b7a6"/>
  </g>
</svg>
