<svg xmlns="http://www.w3.org/2000/svg" width="80" height="80" viewBox="0 0 80 80">
  <g id="unmute" transform="translate(-455 -1810)">
    <g id="volume" transform="translate(457 1798.01)">
      <path id="Path_18" data-name="Path 18" d="M44.335,16.243a2.535,2.535,0,0,0-2.691.305L16.906,36.338H5.086A5.094,5.094,0,0,0,0,41.424V61.768a5.091,5.091,0,0,0,5.086,5.086h11.82L41.64,86.644a2.547,2.547,0,0,0,2.7.3,2.538,2.538,0,0,0,1.439-2.289V18.536A2.551,2.551,0,0,0,44.335,16.243Z" transform="translate(0 0)" fill="#020f18"/>
      <path id="Path_19" data-name="Path 19" d="M346.081,122.984a2.545,2.545,0,0,0-3.576,3.621,20.285,20.285,0,0,1,0,28.726,2.541,2.541,0,1,0,3.576,3.611,25.368,25.368,0,0,0,0-35.959Z" transform="translate(-287.434 -89.373)" fill="#020f18"/>
      <path id="Path_20" data-name="Path 20" d="M391.2,77.863a2.544,2.544,0,1,0-3.586,3.611,30.348,30.348,0,0,1,0,43.074,2.544,2.544,0,0,0,3.586,3.611,35.444,35.444,0,0,0,0-50.3Z" transform="translate(-325.379 -51.418)" fill="#020f18"/>
    </g>
    <rect id="Rectangle_115" data-name="Rectangle 115" width="80" height="80" transform="translate(455 1810)" fill="none"/>
  </g>
</svg>
