<svg xmlns="http://www.w3.org/2000/svg" width="80" height="80" viewBox="0 0 80 80">
  <g id="inverno" transform="translate(-856 -1330)">
    <g id="snowflake" transform="translate(861 1335)">
      <g id="Group_72" data-name="Group 72" transform="translate(15.837 15.837)">
        <path id="Path_70" data-name="Path 70" d="M127.946,154.164a2.051,2.051,0,0,1-1.908-1.3l-2.516-6.375-6.351-2.468a2.051,2.051,0,0,1-1.138-2.728l2.729-6.287-2.746-6.236a2.051,2.051,0,0,1,1.124-2.734l6.375-2.516,2.468-6.351a2.051,2.051,0,0,1,2.728-1.138L135,118.76l6.236-2.746a2.051,2.051,0,0,1,2.734,1.124l2.516,6.375,6.351,2.468a2.051,2.051,0,0,1,1.138,2.728L151.244,135l2.746,6.236a2.051,2.051,0,0,1-1.124,2.734l-6.375,2.516-2.468,6.351a2.051,2.051,0,0,1-2.728,1.138l-6.287-2.729-6.236,2.746a2.05,2.05,0,0,1-.826.174Zm-7.3-13.191,5.2,2.021a2.051,2.051,0,0,1,1.165,1.159l2.062,5.226,5.106-2.248a2.051,2.051,0,0,1,1.643,0l5.153,2.237,2.021-5.2A2.051,2.051,0,0,1,144.152,143l5.226-2.062-2.248-5.106a2.051,2.051,0,0,1,0-1.643l2.237-5.153-5.2-2.021A2.051,2.051,0,0,1,143,125.853l-2.062-5.226-5.106,2.248a2.05,2.05,0,0,1-1.643,0l-5.153-2.237-2.021,5.2a2.051,2.051,0,0,1-1.159,1.165l-5.226,2.062,2.248,5.106a2.051,2.051,0,0,1,0,1.643Z" transform="translate(-115.841 -115.841)" fill="#4793ff"/>
      </g>
      <path id="Path_71" data-name="Path 71" d="M274.987,141.233,272.242,135l2.729-6.287a2.051,2.051,0,0,0-1.138-2.728l-6.351-2.468-2.516-6.375a2.051,2.051,0,0,0-2.734-1.124L256,118.758v4.291a2.05,2.05,0,0,0,.826-.174l5.106-2.248,2.062,5.226a2.051,2.051,0,0,0,1.165,1.159l5.2,2.021-2.237,5.153a2.05,2.05,0,0,0,0,1.643l2.248,5.106L265.149,143a2.051,2.051,0,0,0-1.159,1.165l-2.021,5.2-5.153-2.237a2.049,2.049,0,0,0-.816-.169v4.291l.006,0,6.287,2.729a2.051,2.051,0,0,0,2.728-1.138l2.468-6.351,6.375-2.516a2.05,2.05,0,0,0,1.124-2.734Z" transform="translate(-221.002 -100.004)" fill="#525cdd"/>
      <path id="Path_72" data-name="Path 72" d="M213.838,24.092a2.05,2.05,0,0,0-2.8-.751l-4.805,2.774-4.805-2.774a2.051,2.051,0,0,0-2.051,3.552l5.666,3.271a2.041,2.041,0,0,0,1.023.275c.056,0,.111,0,.167-.008s.111.008.167.008a2.041,2.041,0,0,0,1.023-.275l5.666-3.271A2.051,2.051,0,0,0,213.838,24.092Z" transform="translate(-171.233 -19.913)" fill="#7dd5f4"/>
      <path id="Path_73" data-name="Path 73" d="M213.086,438.553l-5.666-3.271a2.782,2.782,0,0,0-2.38,0l-5.666,3.271a2.051,2.051,0,1,0,2.051,3.552l4.805-2.774,4.805,2.774a2.051,2.051,0,1,0,2.051-3.552Z" transform="translate(-171.232 -375.537)" fill="#7dd5f4"/>
      <path id="Path_74" data-name="Path 74" d="M439.331,206.23l2.774-4.805a2.051,2.051,0,1,0-3.552-2.051l-3.271,5.666a2.782,2.782,0,0,0,0,2.38l3.271,5.666a2.051,2.051,0,1,0,3.552-2.051Z" transform="translate(-375.537 -171.232)" fill="#4793ff"/>
      <path id="Path_75" data-name="Path 75" d="M30.164,205.041l-3.271-5.666a2.051,2.051,0,1,0-3.552,2.051l2.774,4.805-2.774,4.805a2.051,2.051,0,1,0,3.552,2.051l3.271-5.666a2.783,2.783,0,0,0,0-2.38Z" transform="translate(-19.913 -171.233)" fill="#7dd5f4"/>
      <path id="Path_76" data-name="Path 76" d="M377.219,366.46a2.05,2.05,0,0,0-2.512-1.45l-6.319,1.693a2.782,2.782,0,0,0-1.683,1.683l-1.693,6.319a2.051,2.051,0,1,0,3.961,1.061l1.436-5.359,5.359-1.436A2.051,2.051,0,0,0,377.219,366.46Z" transform="translate(-315.049 -315.048)" fill="#4793ff"/>
      <path id="Path_77" data-name="Path 77" d="M67.566,56.808a2.05,2.05,0,0,0-2.512,1.45l-1.436,5.36L58.26,65.054a2.051,2.051,0,1,0,1.062,3.962l6.319-1.693a2.784,2.784,0,0,0,1.683-1.683l1.693-6.319A2.051,2.051,0,0,0,67.566,56.808Z" transform="translate(-48.982 -48.981)" fill="#7dd5f4"/>
      <path id="Path_78" data-name="Path 78" d="M375.768,65.054l-5.359-1.436-1.436-5.359a2.051,2.051,0,0,0-3.961,1.062L366.7,65.64a2.784,2.784,0,0,0,1.683,1.683l6.319,1.693a2.051,2.051,0,1,0,1.061-3.962Z" transform="translate(-315.049 -48.982)" fill="#4793ff"/>
      <path id="Path_79" data-name="Path 79" d="M69.016,374.706l-1.693-6.319a2.782,2.782,0,0,0-1.683-1.683L59.32,365.01a2.051,2.051,0,1,0-1.062,3.961l5.359,1.436,1.436,5.359a2.051,2.051,0,0,0,3.962-1.061Z" transform="translate(-48.981 -315.048)" fill="#7dd5f4"/>
      <path id="Path_80" data-name="Path 80" d="M67.946,32.948h-28l19.8-19.8a2.051,2.051,0,1,0-2.9-2.9l-19.8,19.8v-28a2.051,2.051,0,0,0-4.1,0v28l-19.8-19.8a2.051,2.051,0,0,0-2.9,2.9l19.8,19.8h-28a2.051,2.051,0,0,0,0,4.1h28l-19.8,19.8a2.051,2.051,0,1,0,2.9,2.9l19.8-19.8v28a2.051,2.051,0,0,0,4.1,0v-28l19.8,19.8a2.051,2.051,0,1,0,2.9-2.9l-19.8-19.8h28a2.051,2.051,0,0,0,0-4.1Z" fill="#7dd5f4"/>
      <g id="Group_73" data-name="Group 73" transform="translate(34.998)">
        <path id="Path_81" data-name="Path 81" d="M288.948,32.948h-28l19.8-19.8a2.051,2.051,0,0,0-2.9-2.9l-19.8,19.8v-28A2.051,2.051,0,0,0,256,0V70a2.051,2.051,0,0,0,2.051-2.051v-28l19.8,19.8a2.051,2.051,0,1,0,2.9-2.9l-19.8-19.8h28a2.051,2.051,0,1,0,0-4.1Z" transform="translate(-256)" fill="#4793ff"/>
        <path id="Path_82" data-name="Path 82" d="M263.606,24.092a2.05,2.05,0,0,0-2.8-.751L256,26.116v4.316c.055,0,.111.008.167.008a2.041,2.041,0,0,0,1.023-.275l5.666-3.271A2.051,2.051,0,0,0,263.606,24.092Z" transform="translate(-256 -19.913)" fill="#4793ff"/>
        <path id="Path_83" data-name="Path 83" d="M262.855,438.553l-5.666-3.271a2.04,2.04,0,0,0-1.19-.267v4.316l4.805,2.774a2.051,2.051,0,0,0,2.051-3.552Z" transform="translate(-255.999 -375.537)" fill="#4793ff"/>
      </g>
    </g>
    <rect id="Rectangle_131" data-name="Rectangle 131" width="80" height="80" transform="translate(856 1330)" fill="none"/>
  </g>
</svg>
