<svg xmlns="http://www.w3.org/2000/svg" width="80" height="80" viewBox="0 0 80 80">
  <g id="primavera" transform="translate(-455 -1002)">
    <g id="flower" transform="translate(349.467 1007)">
      <path id="Path_51" data-name="Path 51" d="M146.024,292.683a17.511,17.511,0,0,1-17.491-17.491,2.058,2.058,0,0,1,2.058-2.058,17.489,17.489,0,0,1,17.491,17.489v0A2.058,2.058,0,0,1,146.024,292.683Z" transform="translate(0 -235.654)" fill="#87e752"/>
      <path id="Path_52" data-name="Path 52" d="M243.058,264.325A2.058,2.058,0,0,1,241,262.267V226.992a2.058,2.058,0,0,1,4.117,0v35.275A2.058,2.058,0,0,1,243.058,264.325Z" transform="translate(-97.034 -194.068)" fill="#4ec95f"/>
      <path id="Path_53" data-name="Path 53" d="M243.058,292.683A2.058,2.058,0,0,1,241,290.625v0a17.489,17.489,0,0,1,17.489-17.489,2.06,2.06,0,0,1,2.061,2.058A17.511,17.511,0,0,1,243.058,292.683Z" transform="translate(-97.034 -235.654)" fill="#14aa6b"/>
      <path id="Path_54" data-name="Path 54" d="M146.024,34.982a7.123,7.123,0,0,1-5.922-3.194,7.088,7.088,0,0,1-8.375-8.375,7.087,7.087,0,0,1,0-11.844A7.087,7.087,0,0,1,140.1,3.194a7.086,7.086,0,0,1,11.843,0,7.087,7.087,0,0,1,8.376,8.375,7.087,7.087,0,0,1,0,11.844,7.088,7.088,0,0,1-8.375,8.375A7.123,7.123,0,0,1,146.024,34.982Z" transform="translate(0)" fill="#f5f5fa"/>
      <path id="Path_55" data-name="Path 55" d="M261.922,31.788a7.088,7.088,0,0,0,8.375-8.375,7.087,7.087,0,0,0,0-11.844,7.087,7.087,0,0,0-8.376-8.375A7.124,7.124,0,0,0,256,0V34.982a7.123,7.123,0,0,0,5.922-3.194Z" transform="translate(-109.976 0)" fill="#e1e1eb"/>
      <path id="Path_56" data-name="Path 56" d="M161.457,486.117H130.591a2.058,2.058,0,1,1,0-4.117h30.866a2.058,2.058,0,0,1,0,4.117Z" transform="translate(0 -415.86)" fill="#c8ff50"/>
      <path id="Path_57" data-name="Path 57" d="M215.334,93.268A6.468,6.468,0,1,1,221.8,86.8,6.475,6.475,0,0,1,215.334,93.268Z" transform="translate(-69.31 -69.31)" fill="#fadc5c"/>
      <path id="Path_58" data-name="Path 58" d="M262.468,86.8A6.475,6.475,0,0,0,256,80.333V93.268A6.475,6.475,0,0,0,262.468,86.8Z" transform="translate(-109.976 -69.31)" fill="#fdb442"/>
      <path id="Path_59" data-name="Path 59" d="M258.491,482H241v4.117h17.491a2.058,2.058,0,1,0,0-4.117Z" transform="translate(-97.034 -415.86)" fill="#87e752"/>
    </g>
    <rect id="Rectangle_128" data-name="Rectangle 128" width="80" height="80" transform="translate(455 1002)" fill="none"/>
  </g>
</svg>
