<svg xmlns="http://www.w3.org/2000/svg" width="80" height="80" viewBox="0 0 80 80">
  <g id="verao" transform="translate(-856 -1002)">
    <g id="sun" transform="translate(860.511 1006.511)">
      <g id="Group_68" data-name="Group 68" transform="translate(0.841 0.841)">
        <path id="Path_60" data-name="Path 60" d="M54.065,75.152a2.072,2.072,0,0,1-1-.257L40.622,68.046,28.174,74.9a2.073,2.073,0,0,1-2.99-1.238L21.226,60.012,7.584,56.056a2.073,2.073,0,0,1-1.238-2.99L13.2,40.622,6.345,28.175a2.073,2.073,0,0,1,1.238-2.99l13.645-3.958L25.184,7.584a2.073,2.073,0,0,1,2.99-1.238L40.618,13.2,53.066,6.346a2.073,2.073,0,0,1,2.99,1.238l3.958,13.645,13.642,3.956a2.073,2.073,0,0,1,1.238,2.99L68.045,40.618l6.849,12.448a2.073,2.073,0,0,1-1.238,2.99L60.011,60.014,56.055,73.656a2.072,2.072,0,0,1-1.99,1.5Z" transform="translate(-6.088 -6.089)" fill="#e38659"/>
      </g>
      <path id="Path_61" data-name="Path 61" d="M283.425,40.619l6.849-12.443a2.073,2.073,0,0,0-1.238-2.99L275.394,21.23,271.435,7.585a2.073,2.073,0,0,0-2.99-1.238L256,13.195V68.047h0L268.445,74.9a2.073,2.073,0,0,0,2.99-1.239l3.956-13.642,13.645-3.958a2.073,2.073,0,0,0,1.238-2.99Z" transform="translate(-220.627 -5.248)" fill="#e06c47"/>
      <path id="Path_62" data-name="Path 62" d="M69.968,33.755,59.5,25.38,60.98,12.054a2.073,2.073,0,0,0-2.288-2.288L45.366,11.243,36.991.778a2.073,2.073,0,0,0-3.236,0L25.38,11.242,12.054,9.766a2.073,2.073,0,0,0-2.288,2.288L11.242,25.38.778,33.754a2.073,2.073,0,0,0,0,3.237l10.465,8.375L9.766,58.691a2.073,2.073,0,0,0,2.288,2.288L25.379,59.5l8.375,10.465a2.073,2.073,0,0,0,3.237,0L45.366,59.5,58.691,60.98a2.073,2.073,0,0,0,2.288-2.288L59.5,45.366l10.465-8.375a2.073,2.073,0,0,0,0-3.237Z" transform="translate(0 0)" fill="#f1cb30"/>
      <path id="Path_63" data-name="Path 63" d="M257.618,69.968,265.993,59.5l13.325,1.477a2.073,2.073,0,0,0,2.288-2.288L280.13,45.366,290.6,36.991a2.073,2.073,0,0,0,0-3.237L280.13,25.38l1.477-13.325a2.073,2.073,0,0,0-2.288-2.288l-13.325,1.476L257.618.777A2.072,2.072,0,0,0,256,0V70.746a2.072,2.072,0,0,0,1.618-.778Z" transform="translate(-220.627)" fill="#e8aa28"/>
      <g id="Group_69" data-name="Group 69" transform="translate(17.519 17.519)">
        <path id="Path_64" data-name="Path 64" d="M144.641,162.5A17.854,17.854,0,1,1,162.5,144.641,17.874,17.874,0,0,1,144.641,162.5Z" transform="translate(-126.787 -126.787)" fill="#f5dc55"/>
      </g>
      <path id="Path_65" data-name="Path 65" d="M273.854,144.641A17.874,17.874,0,0,0,256,126.787V162.5A17.874,17.874,0,0,0,273.854,144.641Z" transform="translate(-220.627 -109.268)" fill="#f1cb30"/>
    </g>
    <rect id="Rectangle_129" data-name="Rectangle 129" width="80" height="80" transform="translate(856 1002)" fill="none"/>
  </g>
</svg>
